<?xml version="1.0" standalone="no"?>
<!DOCTYPE svg PUBLIC "-//W3C//DTD SVG 20010904//EN"
 "http://www.w3.org/TR/2001/REC-SVG-20010904/DTD/svg10.dtd">
<svg version="1.0" xmlns="http://www.w3.org/2000/svg"
 width="512.000000pt" height="512.000000pt" viewBox="0 0 512.000000 512.000000"
 preserveAspectRatio="xMidYMid meet">
<metadata>
Created by potrace 1.14, written by Peter Selinger 2001-2017
</metadata>
<g transform="translate(0.000000,512.000000) scale(0.100000,-0.100000)"
fill="#000000" stroke="none">
<path d="M2289 4606 c-2 -2 -24 -7 -49 -10 -58 -8 -212 -46 -225 -56 -5 -4
-23 -10 -39 -14 -17 -4 -46 -14 -65 -23 -20 -9 -42 -17 -50 -19 -8 -1 -17 -6
-20 -11 -3 -4 -24 -17 -46 -28 -212 -104 -461 -338 -567 -532 -17 -32 -34 -60
-38 -63 -11 -8 -90 -191 -90 -209 0 -9 -4 -21 -8 -26 -17 -19 -59 -204 -68
-299 -3 -27 -7 -52 -9 -56 -12 -20 22 -25 155 -20 l146 5 1 35 c3 52 37 212
51 235 4 6 7 15 8 20 1 6 8 24 15 40 7 17 13 32 13 35 8 33 95 183 142 246 72
94 93 116 183 190 85 70 89 74 94 74 2 0 39 20 83 45 43 25 99 52 124 61 25 9
54 20 65 24 58 23 250 61 270 54 10 -4 15 0 16 12 4 54 5 271 1 282 -4 11 -82
18 -93 8z"/>
<path d="M2481 4488 c1 -68 4 -140 6 -160 5 -36 6 -37 52 -37 58 -1 98 -7 134
-20 15 -6 27 -9 27 -6 0 2 24 -4 54 -15 30 -10 57 -16 60 -13 3 4 6 1 6 -5 0
-7 3 -11 8 -10 4 1 29 -8 56 -20 27 -12 51 -22 53 -22 3 0 44 -25 91 -56 135
-87 273 -233 369 -389 15 -25 43 -88 43 -97 0 -4 8 -22 18 -38 l17 -31 153 -4
c169 -4 165 -5 136 63 -9 20 -17 46 -20 56 -9 47 -146 302 -174 326 -3 3 -23
30 -45 60 -49 67 -177 200 -193 200 -7 0 -12 4 -12 8 0 26 -370 250 -370 225
0 -5 -4 -3 -8 2 -7 10 -148 60 -154 54 -2 -1 -12 3 -24 9 -11 6 -32 13 -45 16
-13 3 -48 9 -78 15 -29 6 -78 11 -108 11 l-54 0 2 -122z"/>
<path d="M3576 4499 c-54 -43 -18 -135 49 -123 96 17 86 143 -11 144 -6 0 -23
-9 -38 -21z"/>
<path d="M4014 4482 c-40 -26 -34 -100 10 -121 25 -12 31 -11 55 6 14 11 30
32 35 46 8 22 6 31 -14 52 -23 24 -63 33 -86 17z"/>
<path d="M4597 4344 c-6 -7 13 -45 64 -128 16 -27 27 -51 24 -55 -3 -3 -205
-6 -448 -7 -480 -2 -594 -7 -609 -22 -12 -12 5 -64 28 -83 10 -8 78 -11 216
-11 112 0 205 1 208 2 3 1 122 3 265 4 217 2 265 5 293 18 30 15 32 15 32 0
-1 -9 -16 -46 -35 -81 -19 -36 -31 -69 -28 -74 9 -15 63 1 117 35 28 18 53 36
54 40 2 5 8 6 13 2 5 -3 9 -1 9 5 0 6 15 18 33 27 17 9 34 20 37 24 3 4 19 14
35 23 17 9 44 28 60 43 17 15 49 35 73 46 37 17 40 21 28 34 -8 7 -23 14 -34
14 -10 0 -22 3 -26 8 -4 4 -11 7 -14 7 -10 0 -131 44 -167 60 -29 12 -210 75
-218 75 -2 0 -6 -3 -10 -6z"/>
<path d="M2427 4179 c-51 -14 -198 -92 -292 -155 -107 -72 -165 -127 -165
-156 0 -19 71 -70 91 -66 6 2 26 17 43 35 40 40 219 127 305 149 36 9 81 14
102 11 l37 -5 16 56 c14 50 14 58 0 88 -21 44 -73 60 -137 43z"/>
<path d="M2658 4163 c-3 -4 -4 -28 -3 -53 2 -25 -4 -60 -11 -79 -8 -18 -14
-37 -14 -41 0 -5 25 -23 55 -40 30 -17 61 -44 69 -58 12 -24 12 -30 -5 -53
-22 -31 -22 -30 61 -77 65 -36 137 -101 171 -155 l24 -38 173 -2 c159 -2 172
-1 172 16 0 14 -42 89 -60 107 -3 3 -16 25 -29 49 -13 25 -34 56 -45 70 -41
51 -163 167 -210 200 -61 43 -208 117 -266 135 -25 8 -52 17 -61 21 -10 3 -19
3 -21 -2z"/>
<path d="M2085 4135 c-137 -37 -192 -73 -364 -238 -81 -78 -216 -296 -237
-382 -4 -17 -11 -35 -16 -41 -5 -7 -8 -16 -7 -20 1 -5 0 -16 -3 -24 -12 -31
-27 -97 -33 -142 l-7 -48 154 0 154 0 2 35 c2 19 9 52 17 75 8 22 14 41 13 43
-1 1 9 24 20 51 12 27 22 52 22 55 0 4 22 40 50 80 47 69 84 106 138 143 l25
16 -34 17 c-61 31 -89 65 -89 107 0 22 6 51 14 66 21 41 106 108 229 182 88
53 77 59 -48 25z"/>
<path d="M2420 3940 c0 -3 -8 -6 -17 -7 -31 -2 -88 -27 -151 -66 -33 -20 -63
-37 -68 -37 -4 0 -25 -18 -47 -41 -38 -39 -40 -42 -34 -93 6 -60 22 -95 67
-145 27 -30 30 -41 30 -97 0 -51 4 -68 20 -84 45 -45 142 -9 237 87 55 55 95
112 92 128 0 3 3 19 6 36 9 41 -3 129 -21 153 -11 15 -27 20 -67 21 -29 1 -57
4 -62 7 -6 3 -19 4 -30 2 -11 -2 -38 1 -60 7 -22 5 -48 12 -59 14 -27 6 -33
15 -10 16 10 0 105 1 209 2 179 2 231 8 220 27 -11 18 -96 60 -132 66 -49 9
-123 11 -123 4z"/>
<path d="M4575 3709 c-100 -79 -295 -159 -470 -194 -44 -8 -91 -18 -105 -21
-23 -6 -318 -17 -405 -16 -490 7 -724 2 -790 -18 -16 -5 -43 -11 -59 -14 -28
-5 -137 -38 -188 -58 -29 -11 -37 -24 -15 -25 23 -1 112 -13 127 -18 8 -2 26
-6 40 -9 113 -23 235 -109 327 -232 156 -208 223 -313 223 -348 0 -45 -88
-174 -181 -265 -23 -23 -40 -43 -38 -46 12 -11 112 70 151 123 24 31 48 62 54
67 6 6 33 42 59 80 64 93 99 130 165 174 70 47 251 135 300 146 25 5 158 64
193 85 17 11 42 24 54 29 58 26 209 131 313 218 47 39 150 146 191 198 37 48
118 188 107 184 -2 0 -25 -18 -53 -40z"/>
<path d="M420 3453 c-59 -6 -63 -9 -46 -40 8 -16 23 -37 33 -48 11 -11 36 -45
56 -75 28 -41 37 -65 37 -97 0 -23 -4 -43 -8 -45 -17 -7 -112 -158 -112 -178
0 -19 5 -21 42 -18 40 3 45 7 88 70 25 37 53 81 62 97 11 20 24 29 37 28 34
-2 25 -26 -42 -114 -21 -29 -37 -59 -34 -66 3 -9 22 -13 55 -12 53 1 73 15
104 75 23 44 101 130 117 130 27 0 17 -28 -35 -105 -32 -47 -54 -88 -50 -92 4
-4 23 -8 42 -8 31 -1 37 4 66 49 17 28 48 69 69 91 20 22 43 56 50 76 13 38 8
48 -79 154 -5 6 -11 15 -13 20 -2 6 -18 31 -34 58 -28 44 -32 47 -72 47 -24 0
-43 -2 -43 -5 0 -7 24 -60 30 -65 13 -11 62 -102 65 -121 3 -17 0 -20 -22 -17
-19 2 -29 11 -34 31 -4 15 -22 49 -41 75 -18 26 -39 59 -47 75 -15 29 -43 41
-82 35 -38 -5 -35 -40 11 -115 22 -37 39 -77 38 -88 -5 -31 -33 -30 -47 2 -12
27 -122 205 -125 201 0 0 -17 -3 -36 -5z"/>
<path d="M2459 3282 c-11 -26 -22 -51 -23 -57 -2 -5 -8 -21 -13 -35 -13 -31
-87 -253 -88 -262 0 -3 -2 -9 -5 -11 -3 -3 -5 61 -5 143 0 141 1 150 23 170
25 23 24 22 16 44 -8 20 -44 20 -104 2 -47 -15 -52 -26 -23 -58 11 -12 13 -28
9 -55 -4 -21 -9 -88 -12 -149 -5 -100 -4 -117 16 -160 l21 -49 20 25 19 25
-16 -39 c-9 -22 -18 -48 -19 -58 -7 -34 -29 -88 -36 -88 -4 0 -10 21 -14 48
-5 26 -9 52 -11 57 -1 6 -11 48 -23 95 -31 131 -51 286 -47 378 1 27 -2 42
-10 42 -20 0 -133 -80 -152 -108 -18 -26 -83 -156 -83 -167 0 -2 -6 -20 -14
-39 -16 -39 -46 -172 -50 -230 -2 -22 -7 -62 -11 -90 -8 -62 -11 -83 -19 -161
-6 -59 -6 -60 27 -86 18 -14 50 -35 71 -48 l38 -23 -1 33 c0 64 8 594 10 609
5 39 21 -56 25 -145 2 -55 7 -134 11 -175 4 -41 8 -102 10 -135 1 -33 3 -62 4
-65 1 -3 4 -27 5 -55 1 -27 3 -60 4 -72 1 -27 36 -44 166 -79 78 -21 196 -38
260 -37 32 0 126 13 135 18 4 2 25 7 46 9 22 3 58 12 82 20 23 8 42 14 42 12
0 -2 26 7 57 20 70 28 125 71 177 137 63 81 183 252 201 286 l16 32 -57 87
c-31 48 -61 89 -65 90 -5 2 -9 8 -9 14 0 6 -12 25 -27 42 -16 18 -39 48 -53
67 -47 64 -147 157 -191 178 -53 24 -139 53 -236 80 l-73 20 -21 -47z m418
-489 c13 -13 26 -23 28 -23 3 0 16 -10 30 -22 l25 -22 -23 -25 c-13 -14 -31
-36 -39 -49 -9 -12 -50 -61 -93 -108 -43 -46 -84 -92 -91 -102 -36 -47 -38 86
-5 290 12 70 21 144 21 164 l0 37 62 -59 c33 -32 72 -69 85 -81z m-566 80
c-12 -20 -14 -14 -5 12 4 9 9 14 11 11 3 -2 0 -13 -6 -23z"/>
<path d="M2780 2737 c-14 -70 -19 -127 -11 -127 3 1 25 25 49 55 47 59 47 76
-2 108 l-25 17 -11 -53z"/>
<path d="M4725 3159 l-28 -34 -266 0 -266 0 -3 -24 c-2 -12 -1 -34 2 -46 l6
-24 259 -1 c237 0 264 -2 305 -21 57 -25 85 -18 130 31 30 34 34 43 26 68 -12
44 -45 72 -93 78 -40 6 -46 4 -72 -27z"/>
<path d="M1584 3151 c-2 -2 -40 -4 -84 -3 l-80 2 4 -28 c3 -15 7 -48 10 -73 8
-68 51 -206 83 -269 26 -52 89 -149 103 -160 3 -3 21 -26 39 -52 39 -59 101
-120 115 -115 6 2 11 30 12 63 0 32 4 82 7 109 28 200 27 227 -11 296 -31 55
-52 134 -52 194 l0 33 -71 4 c-39 2 -73 1 -75 -1z"/>
<path d="M1037 3140 c-12 -5 -20 -25 -19 -45 2 -20 12 -81 18 -115 4 -19 8
-44 9 -55 14 -107 160 -430 240 -530 71 -88 79 -97 137 -154 80 -79 156 -141
233 -188 111 -70 335 -165 450 -193 146 -35 270 -48 277 -28 3 11 3 221 -1
269 -1 11 -9 15 -28 13 -15 -1 -50 2 -78 7 -27 6 -59 12 -70 13 -11 2 -38 9
-60 16 -22 8 -42 14 -45 15 -31 3 -233 99 -289 137 -106 73 -215 174 -272 252
-33 45 -63 86 -67 91 -40 54 -120 247 -127 307 -3 23 -8 44 -10 48 -2 4 -7 35
-10 70 -3 34 -8 66 -11 71 -5 9 -255 8 -277 -1z"/>
<path d="M3735 2931 c-154 -73 -295 -162 -295 -186 0 -3 -5 -11 -10 -18 -6 -7
-45 -61 -88 -121 -83 -117 -172 -207 -279 -279 -80 -54 -221 -125 -313 -156
-36 -13 -72 -26 -80 -29 -8 -3 -22 -6 -30 -7 -8 -1 -35 -5 -60 -8 -25 -4 -57
-8 -73 -10 -15 -2 -27 -6 -27 -10 0 -4 0 -71 0 -148 l0 -141 43 6 c23 4 60 9
81 11 173 22 427 121 591 231 83 55 77 50 190 161 159 155 240 275 349 516 19
42 59 194 54 205 -2 4 -25 -4 -53 -17z"/>
<path d="M4589 2787 c-28 -19 -47 -22 -107 -22 -89 1 -90 0 -83 -97 1 -15 12
-18 74 -18 60 0 77 -4 91 -19 25 -28 66 -39 102 -29 33 8 84 70 84 102 0 29
-40 77 -76 92 -43 18 -45 18 -85 -9z"/>
<path d="M3830 2711 c-17 -30 -28 -56 -26 -58 6 -6 498 -5 504 1 8 9 7 94 -1
103 -5 4 -107 8 -228 8 l-220 0 -29 -54z"/>
<path d="M878 2598 c-33 -11 -69 -81 -61 -120 15 -74 106 -95 156 -36 17 20
27 44 27 64 0 61 -66 111 -122 92z"/>
<path d="M4222 2438 c-32 -20 -47 -21 -290 -23 -189 -2 -257 -5 -260 -14 -2
-7 -31 -46 -63 -87 -32 -40 -59 -75 -59 -77 0 -9 572 -7 607 2 32 9 48 8 76
-4 34 -14 39 -14 81 7 57 27 80 76 65 132 -6 20 -16 36 -24 36 -8 0 -15 5 -15
11 0 9 -59 39 -77 39 -4 0 -23 -10 -41 -22z"/>
<path d="M1170 2259 c-19 -4 -85 -8 -145 -7 -61 1 -119 -3 -128 -9 -20 -11
-27 -67 -10 -84 5 -5 20 -11 32 -12 25 -2 27 -14 6 -37 -9 -10 -18 -33 -22
-53 l-5 -36 78 -23 c49 -15 110 -25 159 -27 l81 -2 -2 40 c-1 43 0 44 60 43
44 -1 56 -9 72 -47 l14 -35 110 2 c61 2 110 4 110 5 0 1 -35 29 -77 62 -43 32
-107 87 -143 121 -119 114 -123 116 -190 99z"/>
<path d="M4288 2041 c-21 -22 -41 -40 -44 -40 -2 -1 -7 -1 -11 -2 -5 0 -88 -1
-185 -1 l-178 -1 0 -56 0 -56 202 2 c166 1 206 -1 219 -13 27 -24 80 -27 119
-7 39 20 80 75 75 101 -2 9 -4 22 -4 29 -1 16 -57 73 -73 74 -7 1 -28 3 -47 5
-28 3 -40 -2 -73 -35z"/>
<path d="M3259 1988 c-19 -11 -36 -24 -39 -27 -3 -4 -33 -24 -67 -45 -60 -36
-83 -57 -45 -41 9 4 152 9 317 11 165 2 303 3 307 3 4 1 6 24 5 53 -2 49 -4
52 -32 56 -26 4 -139 5 -325 2 -25 0 -55 2 -66 4 -12 2 -37 -5 -55 -16z"/>
<path d="M1017 1893 c-1 -1 -25 -4 -52 -7 -37 -5 -56 -13 -72 -32 -24 -27 -30
-59 -13 -69 14 -9 879 -13 942 -5 26 4 50 9 53 12 14 14 -12 38 -68 64 -62 28
-62 28 -312 30 -137 2 -301 4 -363 6 -62 2 -114 3 -115 1z"/>
<path d="M1006 1460 c-67 -34 -95 -62 -124 -121 -60 -124 -9 -299 106 -362 42
-23 97 -40 127 -39 45 1 102 16 135 37 41 26 90 72 89 83 -1 14 -104 73 -107
62 -7 -19 -76 -47 -114 -45 -81 3 -128 59 -124 147 3 68 30 109 87 132 39 16
43 16 84 -4 23 -11 50 -29 59 -39 17 -18 19 -18 71 16 61 40 60 41 -15 104
-78 65 -182 76 -274 29z"/>
<path d="M1540 1465 c0 -12 -4 -25 -8 -30 -4 -6 -18 -35 -30 -65 -11 -30 -27
-68 -33 -85 -7 -16 -13 -34 -14 -40 -2 -5 -19 -50 -39 -100 -20 -49 -45 -115
-55 -147 l-18 -56 70 2 c75 2 75 2 100 67 l14 35 79 0 c44 -1 84 -4 91 -9 6
-4 17 -24 24 -45 6 -20 16 -39 20 -42 9 -6 132 -5 137 1 2 2 -1 17 -7 32 -6
16 -11 31 -11 33 0 3 -11 34 -25 70 -14 35 -37 94 -51 132 -14 37 -32 81 -39
97 -7 17 -21 53 -31 80 -30 85 -36 90 -109 90 -59 0 -65 -1 -65 -20z m120
-297 c0 -4 -10 -6 -22 -4 -13 3 -35 5 -50 5 -28 1 -29 7 -10 54 7 16 12 30 12
32 0 2 5 16 11 32 10 27 11 26 35 -41 13 -38 24 -73 24 -78z"/>
<path d="M1934 1483 c-5 -2 -8 -76 -7 -166 1 -89 2 -209 2 -268 l1 -105 65 -1
c73 0 65 -11 68 97 l2 55 40 1 c71 3 106 12 146 38 31 21 71 73 74 96 0 3 3
10 6 15 12 19 2 100 -16 135 -44 85 -88 104 -251 105 -67 0 -126 -1 -130 -2z
m209 -121 c28 -3 57 -39 57 -72 0 -46 -31 -70 -89 -70 l-49 0 0 73 0 72 32 -1
c17 -1 39 -2 49 -2z"/>
<path d="M2356 1480 c-1 -3 -2 -30 -2 -60 l1 -55 72 -3 73 -3 2 -207 3 -207
68 -1 68 0 -3 208 -3 208 73 0 72 0 0 63 0 62 -211 0 c-116 0 -212 -2 -213 -5z"/>
<path d="M2834 1481 c-6 -6 -5 -493 2 -517 5 -21 11 -21 177 -20 95 1 177 4
182 8 11 7 13 97 2 114 -4 7 -49 10 -120 8 l-113 -2 -3 39 -2 39 58 1 c32 1
83 2 113 3 l55 1 3 58 3 57 -88 2 c-48 1 -100 2 -115 2 -25 1 -27 4 -26 43 l1
43 122 0 122 0 -4 28 c-6 37 -5 43 1 70 2 12 2 23 -2 23 -20 4 -364 4 -368 0z"/>
<path d="M3236 1482 c-4 -3 9 -39 55 -157 13 -33 24 -62 24 -65 1 -5 52 -141
70 -185 5 -11 9 -22 10 -25 0 -3 9 -28 20 -56 l18 -50 61 4 c79 4 82 6 89 34
3 13 17 55 32 93 15 39 37 100 50 136 12 36 28 76 36 90 7 13 14 30 15 36 4
22 37 108 46 118 21 23 6 31 -63 30 -73 0 -84 -7 -94 -53 -2 -9 -9 -30 -15
-47 -6 -16 -13 -37 -15 -45 -6 -28 -56 -173 -64 -188 -5 -10 -16 9 -35 59 -15
41 -30 83 -32 94 -2 11 -8 29 -13 40 -15 31 -46 119 -46 130 0 8 -141 15 -149
7z"/>
<path d="M3819 1455 c-2 -140 2 -500 7 -504 3 -3 89 -6 190 -6 l184 0 0 63 c0
34 -3 63 -7 63 -5 1 -57 3 -118 4 -60 1 -113 3 -118 4 -4 0 -6 18 -5 39 l3 38
105 -1 105 0 0 60 0 60 -40 1 c-22 0 -70 1 -107 2 l-68 2 0 40 0 40 98 0 c141
0 142 1 142 69 l0 56 -185 0 -185 1 -1 -31z"/>
<path d="M4272 1481 c-5 -4 -8 -125 -8 -271 l1 -265 68 0 c75 0 70 -8 69 98
-1 31 3 58 9 58 51 6 54 4 99 -76 l46 -79 77 -1 c42 -1 77 0 77 1 0 2 -26 45
-59 96 l-58 93 26 16 c84 51 98 180 29 263 -47 57 -84 68 -236 70 -73 1 -136
0 -140 -3z m254 -136 c29 -29 31 -64 4 -93 -16 -17 -32 -22 -75 -22 l-53 0 3
68 c1 37 3 68 4 68 0 1 22 2 47 2 36 1 51 -4 70 -23z"/>
<path d="M3695 674 c-19 -19 -15 -38 9 -42 18 -4 46 14 46 29 0 5 -9 13 -19
19 -15 7 -24 6 -36 -6z"/>
<path d="M2496 312 c-2 -2 -75 -3 -162 -3 -88 0 -202 -4 -254 -9 -52 -5 -132
-12 -177 -15 -45 -3 -96 -12 -114 -19 -32 -14 -32 -14 -8 -21 13 -5 38 -9 54
-11 17 -1 30 -3 30 -4 0 -4 188 -18 360 -28 143 -8 861 -7 1027 1 64 4 154 11
200 16 46 5 90 9 98 9 8 0 29 3 45 6 28 6 85 15 113 18 6 1 12 5 12 10 0 4 -6
8 -12 9 -7 0 -22 2 -33 4 -11 3 -47 7 -80 10 -33 3 -80 7 -105 10 -156 15
-982 29 -994 17z"/>
</g>
</svg>
